<svg width="100" height="40" viewBox="0 0 100 40" fill="none" xmlns="http://www.w3.org/2000/svg">
<path d="M0.257812 9.625V8.50781H6.5625V9.625H4V20H2.82812V9.625H0.257812ZM17.14 11.5V20H16.0619V18.5391C15.6035 19.0964 15.0879 19.5156 14.515 19.7969C13.9473 20.0781 13.3249 20.2188 12.6478 20.2188C11.4447 20.2188 10.416 19.7839 9.56187 18.9141C8.71292 18.0391 8.28844 16.9766 8.28844 15.7266C8.28844 14.5026 8.71812 13.4557 9.5775 12.5859C10.4369 11.7161 11.4707 11.2812 12.6791 11.2812C13.377 11.2812 14.0072 11.4297 14.5697 11.7266C15.1374 12.0234 15.6348 12.4688 16.0619 13.0625V11.5H17.14ZM12.765 12.3359C12.1556 12.3359 11.5931 12.487 11.0775 12.7891C10.5619 13.0859 10.1504 13.5052 9.84312 14.0469C9.54104 14.5885 9.39 15.1615 9.39 15.7656C9.39 16.3646 9.54365 16.9375 9.85094 17.4844C10.1582 18.0312 10.5697 18.4583 11.0853 18.7656C11.6061 19.0677 12.1634 19.2188 12.7572 19.2188C13.3561 19.2188 13.9239 19.0677 14.4603 18.7656C14.9968 18.4635 15.4082 18.0547 15.6947 17.5391C15.9864 17.0234 16.1322 16.4427 16.1322 15.7969C16.1322 14.8125 15.8067 13.9896 15.1556 13.3281C14.5098 12.6667 13.7129 12.3359 12.765 12.3359ZM24.5222 12.4297L23.8191 13.1562C23.2357 12.5885 22.6654 12.3047 22.1081 12.3047C21.754 12.3047 21.4493 12.4219 21.1941 12.6562C20.9441 12.8906 20.8191 13.1641 20.8191 13.4766C20.8191 13.7526 20.9232 14.0156 21.1316 14.2656C21.3399 14.5208 21.7774 14.8203 22.4441 15.1641C23.2566 15.5859 23.8086 15.9922 24.1003 16.3828C24.3868 16.7786 24.53 17.224 24.53 17.7188C24.53 18.4167 24.2852 19.0078 23.7956 19.4922C23.306 19.9766 22.6941 20.2188 21.9597 20.2188C21.4701 20.2188 21.0014 20.112 20.5534 19.8984C20.1107 19.6849 19.7435 19.3906 19.4519 19.0156L20.1394 18.2344C20.6967 18.8646 21.2878 19.1797 21.9128 19.1797C22.3503 19.1797 22.7227 19.0391 23.03 18.7578C23.3373 18.4766 23.4909 18.1458 23.4909 17.7656C23.4909 17.4531 23.3894 17.1745 23.1863 16.9297C22.9831 16.6901 22.5248 16.388 21.8113 16.0234C21.0456 15.6276 20.5248 15.237 20.2488 14.8516C19.9727 14.4661 19.8347 14.026 19.8347 13.5312C19.8347 12.8854 20.0534 12.349 20.4909 11.9219C20.9336 11.4948 21.4909 11.2812 22.1628 11.2812C22.9441 11.2812 23.7305 11.6641 24.5222 12.4297ZM27.0997 8.21875H28.2013V14.9219L32.1309 11.5H33.7403L29.0763 15.5547L34.0138 20H32.4669L28.2013 16.1797V20H27.0997V8.21875Z" fill="white"/>
<g filter="url(#filter0_d_1_18310)">
<rect x="64" width="32" height="32" rx="6" fill="white"/>
<rect x="64.5" y="0.5" width="31" height="31" rx="5.5" stroke="#D69E5A"/>
</g>
<path d="M80 25C75.0293 25 71 20.9707 71 16C71 11.0293 75.0293 7 80 7C84.9707 7 89 11.0293 89 16C89 20.9707 84.9707 25 80 25ZM80 23.2C81.9096 23.2 83.7409 22.4414 85.0912 21.0912C86.4414 19.7409 87.2 17.9096 87.2 16C87.2 14.0904 86.4414 12.2591 85.0912 10.9088C83.7409 9.55857 81.9096 8.8 80 8.8C78.0904 8.8 76.2591 9.55857 74.9088 10.9088C73.5586 12.2591 72.8 14.0904 72.8 16C72.8 17.9096 73.5586 19.7409 74.9088 21.0912C76.2591 22.4414 78.0904 23.2 80 23.2ZM79.1027 19.6L75.284 15.7813L76.5566 14.5087L79.1027 17.0548L84.1931 11.9635L85.4666 13.2361L79.1027 19.6Z" fill="#D69E5A"/>
<defs>
<filter id="filter0_d_1_18310" x="60" y="0" width="40" height="40" filterUnits="userSpaceOnUse" color-interpolation-filters="sRGB">
<feFlood flood-opacity="0" result="BackgroundImageFix"/>
<feColorMatrix in="SourceAlpha" type="matrix" values="0 0 0 0 0 0 0 0 0 0 0 0 0 0 0 0 0 0 127 0" result="hardAlpha"/>
<feOffset dy="4"/>
<feGaussianBlur stdDeviation="2"/>
<feComposite in2="hardAlpha" operator="out"/>
<feColorMatrix type="matrix" values="0 0 0 0 0 0 0 0 0 0 0 0 0 0 0 0 0 0 0.25 0"/>
<feBlend mode="normal" in2="BackgroundImageFix" result="effect1_dropShadow_1_18310"/>
<feBlend mode="normal" in="SourceGraphic" in2="effect1_dropShadow_1_18310" result="shape"/>
</filter>
</defs>
</svg>
