<svg width="103" height="46" viewBox="0 0 103 46" fill="none" xmlns="http://www.w3.org/2000/svg">
<path d="M1.40625 13.5078H7.99219V14.6406H2.55469V18.2344H7.94531V19.3594H2.55469V23.8672H7.94531V25H1.40625V13.5078ZM9.63219 16.5H10.7963L13.64 22.6875L16.4603 16.5H17.6322L13.7416 25H13.5463L9.63219 16.5ZM27.1081 22.1797L28.03 22.6641C27.7279 23.2578 27.379 23.737 26.9831 24.1016C26.5873 24.4661 26.142 24.7448 25.6472 24.9375C25.1524 25.125 24.5925 25.2188 23.9675 25.2188C22.5821 25.2188 21.4988 24.7656 20.7175 23.8594C19.9363 22.9479 19.5456 21.9193 19.5456 20.7734C19.5456 19.6953 19.8764 18.7344 20.5378 17.8906C21.3764 16.8177 22.4988 16.2812 23.905 16.2812C25.3529 16.2812 26.5092 16.8307 27.3738 17.9297C27.9883 18.7057 28.3008 19.6745 28.3113 20.8359H20.6706C20.6915 21.8255 21.0066 22.638 21.6159 23.2734C22.2253 23.9036 22.9779 24.2188 23.8738 24.2188C24.306 24.2188 24.7253 24.1432 25.1316 23.9922C25.543 23.8411 25.892 23.6406 26.1784 23.3906C26.4649 23.1406 26.7748 22.737 27.1081 22.1797ZM27.1081 19.8906C26.9623 19.3073 26.7488 18.8411 26.4675 18.4922C26.1915 18.1432 25.8243 17.862 25.3659 17.6484C24.9076 17.4349 24.4258 17.3281 23.9206 17.3281C23.0873 17.3281 22.3711 17.5964 21.7722 18.1328C21.3347 18.5234 21.004 19.1094 20.78 19.8906H27.1081ZM30.9981 16.5H32.0919V18.0234C32.5294 17.4401 33.0138 17.0052 33.545 16.7188C34.0763 16.4271 34.6544 16.2812 35.2794 16.2812C35.9148 16.2812 36.4773 16.4427 36.9669 16.7656C37.4617 17.0885 37.8263 17.5234 38.0606 18.0703C38.295 18.6172 38.4122 19.4688 38.4122 20.625V25H37.3263V20.9453C37.3263 19.9661 37.2846 19.3125 37.2013 18.9844C37.071 18.4219 36.8263 18 36.4669 17.7188C36.1075 17.4323 35.6388 17.2891 35.0606 17.2891C34.3992 17.2891 33.8054 17.5078 33.2794 17.9453C32.7585 18.3828 32.4148 18.9245 32.2481 19.5703C32.144 19.9922 32.0919 20.763 32.0919 21.8828V25H30.9981V16.5ZM42.3569 13.3438H43.4584V16.5H45.1928V17.4375H43.4584V25H42.3569V17.4375H40.8647V16.5H42.3569V13.3438Z" fill="white"/>
<g filter="url(#filter0_d_1_18317)">
<rect x="61" width="38" height="38" rx="6" fill="#D69E5A"/>
<rect x="61.5" y="0.5" width="37" height="37" rx="5.5" stroke="#D69E5A"/>
</g>
<g clip-path="url(#clip0_1_18317)">
<path d="M80 17.75C80.1658 17.75 80.3247 17.8158 80.4419 17.9331C80.5592 18.0503 80.625 18.2092 80.625 18.375V20.25H82.5C82.6658 20.25 82.8247 20.3158 82.9419 20.4331C83.0592 20.5503 83.125 20.7092 83.125 20.875C83.125 21.0408 83.0592 21.1997 82.9419 21.3169C82.8247 21.4342 82.6658 21.5 82.5 21.5H80.625V23.375C80.625 23.5408 80.5592 23.6997 80.4419 23.8169C80.3247 23.9342 80.1658 24 80 24C79.8342 24 79.6753 23.9342 79.5581 23.8169C79.4408 23.6997 79.375 23.5408 79.375 23.375V21.5H77.5C77.3342 21.5 77.1753 21.4342 77.0581 21.3169C76.9408 21.1997 76.875 21.0408 76.875 20.875C76.875 20.7092 76.9408 20.5503 77.0581 20.4331C77.1753 20.3158 77.3342 20.25 77.5 20.25H79.375V18.375C79.375 18.2092 79.4408 18.0503 79.5581 17.9331C79.6753 17.8158 79.8342 17.75 80 17.75Z" fill="white"/>
<path d="M74.375 9C74.5408 9 74.6997 9.06585 74.8169 9.18306C74.9342 9.30027 75 9.45924 75 9.625V10.25H85V9.625C85 9.45924 85.0658 9.30027 85.1831 9.18306C85.3003 9.06585 85.4592 9 85.625 9C85.7908 9 85.9497 9.06585 86.0669 9.18306C86.1842 9.30027 86.25 9.45924 86.25 9.625V10.25H87.5C88.163 10.25 88.7989 10.5134 89.2678 10.9822C89.7366 11.4511 90 12.087 90 12.75V26.5C90 27.163 89.7366 27.7989 89.2678 28.2678C88.7989 28.7366 88.163 29 87.5 29H72.5C71.837 29 71.2011 28.7366 70.7322 28.2678C70.2634 27.7989 70 27.163 70 26.5V12.75C70 12.087 70.2634 11.4511 70.7322 10.9822C71.2011 10.5134 71.837 10.25 72.5 10.25H73.75V9.625C73.75 9.45924 73.8158 9.30027 73.9331 9.18306C74.0503 9.06585 74.2092 9 74.375 9ZM71.25 14V26.5C71.25 26.8315 71.3817 27.1495 71.6161 27.3839C71.8505 27.6183 72.1685 27.75 72.5 27.75H87.5C87.8315 27.75 88.1495 27.6183 88.3839 27.3839C88.6183 27.1495 88.75 26.8315 88.75 26.5V14H71.25Z" fill="white"/>
</g>
<defs>
<filter id="filter0_d_1_18317" x="57" y="0" width="46" height="46" filterUnits="userSpaceOnUse" color-interpolation-filters="sRGB">
<feFlood flood-opacity="0" result="BackgroundImageFix"/>
<feColorMatrix in="SourceAlpha" type="matrix" values="0 0 0 0 0 0 0 0 0 0 0 0 0 0 0 0 0 0 127 0" result="hardAlpha"/>
<feOffset dy="4"/>
<feGaussianBlur stdDeviation="2"/>
<feComposite in2="hardAlpha" operator="out"/>
<feColorMatrix type="matrix" values="0 0 0 0 0 0 0 0 0 0 0 0 0 0 0 0 0 0 0.25 0"/>
<feBlend mode="normal" in2="BackgroundImageFix" result="effect1_dropShadow_1_18317"/>
<feBlend mode="normal" in="SourceGraphic" in2="effect1_dropShadow_1_18317" result="shape"/>
</filter>
<clipPath id="clip0_1_18317">
<rect width="20" height="20" fill="white" transform="translate(70 9)"/>
</clipPath>
</defs>
</svg>
