<svg width="360" height="800" viewBox="0 0 360 800" fill="none" xmlns="http://www.w3.org/2000/svg">
<g clip-path="url(#clip0_1_19548)">
<rect width="360" height="800" fill="#1F396B"/>
<path opacity="0.5" d="M391 844.123C391 873.675 380.702 901.006 363.261 923.215L362.967 923.587C336.476 957.062 293.672 978.814 245.376 978.814C197.08 978.814 154.276 957.07 127.784 923.587H-67.8298V869.569C-90.8318 845.764 -104.825 814.326 -104.825 779.876C-104.825 705.486 -39.6066 645.186 40.7991 645.186C100.678 645.186 152.14 678.628 174.505 726.427C196.347 715.203 220.676 709.368 245.364 709.433C289.755 709.433 329.504 727.803 356.209 756.771C358.673 759.437 361.02 762.19 363.25 765.032C380.71 787.241 391 814.572 391 844.123Z" fill="#13294B"/>
<path opacity="0.5" d="M96.6049 -4.17807C96.2225 -33.727 105.913 -61.1856 122.637 -83.613L122.918 -83.9886C148.323 -117.796 189.791 -140.086 236.896 -140.695C284.001 -141.305 326.031 -120.102 352.302 -86.9566L543.092 -89.4251L543.791 -35.4114C566.534 -11.8988 580.589 19.3592 581.035 53.8063C581.997 128.19 519.167 189.309 440.744 190.323C382.341 191.079 331.716 158.289 309.284 110.776C288.126 122.275 264.473 128.416 240.392 128.663C197.096 129.224 158.09 111.356 131.668 82.728C129.23 80.0937 126.906 77.3699 124.694 74.5566C107.377 52.5696 96.9872 25.3709 96.6049 -4.17807Z" fill="#13294B"/>
</g>
<defs>
<clipPath id="clip0_1_19548">
<rect width="360" height="800" fill="white"/>
</clipPath>
</defs>
</svg>
