<svg width="39" height="39" viewBox="0 0 39 39" fill="none" xmlns="http://www.w3.org/2000/svg">
<path d="M12.6151 24.8047H4.88209C3.74297 24.8037 2.65077 24.3367 1.84529 23.5063C1.03981 22.6758 0.586898 21.5497 0.585988 20.3753V4.4294C0.586898 3.25494 1.03981 2.12885 1.84529 1.29838C2.65077 0.467908 3.74297 0.000938444 4.88209 0H20.348C21.4872 0.000938444 22.5794 0.467908 23.3848 1.29838C24.1903 2.12885 24.6432 3.25494 24.6441 4.4294V12.4023H22.9257V4.4294C22.9248 3.72484 22.6529 3.0494 22.1697 2.5512C21.6865 2.053 21.0314 1.7727 20.348 1.77176H4.88209C4.19873 1.7727 3.54362 2.053 3.06041 2.5512C2.5772 3.0494 2.30534 3.72484 2.30443 4.4294V20.3753C2.30534 21.0798 2.5772 21.7553 3.06041 22.2535C3.54362 22.7517 4.19873 23.032 4.88209 23.0329H12.6151V24.8047ZM12.5498 16.2807C10.64 17.8095 8.43241 18.8949 6.07812 19.4628L5.66226 17.7442C7.70418 17.2516 9.62468 16.3273 11.3022 15.0298C9.2683 12.8197 7.8712 10.0694 7.26728 7.08704H5.74131V5.31528H11.3761L10.4412 4.35145L11.6562 3.09881L13.8042 5.31528H19.4888V7.08704H17.9182C17.4913 9.06916 16.7318 10.9591 15.6739 12.6716C14.2389 13.4405 13.1264 14.7243 12.5463 16.2807H12.5498ZM12.6048 13.8304C14.3539 11.9525 15.5793 9.62288 16.1516 7.08704H9.04415C9.62146 9.62397 10.8515 11.9535 12.6048 13.8304ZM38.3917 34.4554V18.6974C38.398 18.1071 38.291 17.5213 38.0767 16.9738C37.8625 16.4264 37.5453 15.928 37.1434 15.5076C36.7415 15.0871 36.2628 14.7528 35.735 14.5239C35.2072 14.295 34.6407 14.1762 34.0681 14.1741H18.7207C17.5576 14.1755 16.4425 14.6525 15.62 15.5005C14.7975 16.3485 14.3349 17.4982 14.3335 18.6974V34.4554C14.3349 35.6547 14.7975 36.8044 15.62 37.6523C16.4425 38.5003 17.5576 38.9773 18.7207 38.9787H34.0045C35.1676 38.9773 36.2827 38.5003 37.1052 37.6523C37.9277 36.8044 38.3903 35.6547 38.3917 34.4554ZM34.0681 15.9458C34.7589 15.9463 35.4212 16.2295 35.9097 16.7331C36.3982 17.2367 36.6728 17.9196 36.6732 18.6318V34.521C36.6728 35.2332 36.3982 35.9161 35.9097 36.4198C35.4212 36.9234 34.7589 37.2065 34.0681 37.207H18.6571C17.9663 37.2065 17.3039 36.9234 16.8155 36.4198C16.327 35.9161 16.0524 35.2332 16.0519 34.521V18.6318C16.0524 17.9196 16.327 17.2367 16.8155 16.7331C17.3039 16.2295 17.9663 15.9463 18.6571 15.9458H34.0681ZM30.4834 30.1199H22.2418L20.2501 34.071L18.7276 33.256L26.3626 18.0985L33.9976 33.256L32.4751 34.071L30.4834 30.1199ZM29.5898 28.3482L26.3626 21.9433L23.1354 28.3482H29.5898ZM9.17819 37.2247C8.26709 37.2233 7.3937 36.8495 6.74945 36.1853C6.10521 35.521 5.74267 34.6205 5.74131 33.6812V29.6008L8.56986 32.5171L9.7848 31.2645L4.8924 26.2221L0 31.2645L1.21494 32.5171L4.02287 29.6238V33.6847C4.02423 35.094 4.56782 36.4451 5.53433 37.4416C6.50085 38.4381 7.81133 38.9986 9.17819 39H12.7147V37.2282L9.17819 37.2247ZM37.7833 6.46161L34.9548 9.37793V5.31528C34.9534 3.90601 34.4098 2.55487 33.4433 1.55836C32.4768 0.561861 31.1663 0.00140716 29.7995 0H26.3626V1.77176H29.7995C30.7106 1.77317 31.584 2.14695 32.2282 2.81119C32.8725 3.47542 33.235 4.37591 33.2364 5.31528V9.35667L30.4284 6.45984L29.2135 7.71248L34.1059 12.7585L39 7.71248L37.7833 6.46161Z" fill="#94A3B8"/>
</svg>
