<svg width="43" height="43" viewBox="0 0 43 43" fill="none" xmlns="http://www.w3.org/2000/svg">
<path d="M25.3487 22.747H34.7395C35.2145 22.747 35.5995 22.362 35.5995 21.887C35.5995 21.412 35.2145 21.027 34.7395 21.027H25.3487C24.8738 21.027 24.4887 21.412 24.4887 21.887C24.4887 22.362 24.8738 22.747 25.3487 22.747ZM8.16176 10.148H17.5525C18.0275 10.148 18.4125 9.76295 18.4125 9.28798C18.4125 8.81301 18.0275 8.42798 17.5525 8.42798H8.16176C7.68678 8.42798 7.30176 8.81301 7.30176 9.28798C7.30176 9.76295 7.68678 10.148 8.16176 10.148Z" fill="#94A3B8"/>
<path d="M24.9428 17.5869H36.9416C37.6538 17.5869 38.2316 18.1647 38.2316 18.8769V37.3958C38.2316 38.108 37.6538 38.6857 36.9416 38.6857H23.6116C22.899 38.6857 22.3216 38.1082 22.3216 37.3958V35.7463C22.3216 35.2713 21.9365 34.8863 21.4616 34.8863C20.9866 34.8863 20.6016 35.2713 20.6016 35.7463V37.3958C20.6016 39.0581 21.949 40.4057 23.6116 40.4057H36.9416C38.6037 40.4057 39.9516 39.0579 39.9516 37.3958V18.8769C39.9516 17.2148 38.6037 15.8669 36.9416 15.8669H24.9428C24.4679 15.8669 24.0828 16.252 24.0828 16.7269C24.0828 17.2019 24.4679 17.5869 24.9428 17.5869Z" fill="#94A3B8"/>
<path d="M6.41371 29.7776H21.4925C21.9675 29.7776 22.3525 29.3926 22.3525 28.9176C22.3525 28.4426 21.9675 28.0576 21.4925 28.0576H6.41371C5.93874 28.0576 5.55371 28.4426 5.55371 28.9176C5.55371 29.3926 5.93874 29.7776 6.41371 29.7776Z" fill="#94A3B8"/>
<path d="M21.4998 31.4759H6.01977C5.30749 31.4759 4.72977 30.8982 4.72977 30.1859V6.44994C4.72977 5.73767 5.30749 5.15994 6.01977 5.15994H19.3498C20.062 5.15994 20.6398 5.73767 20.6398 6.44994V23.1124C20.6398 23.5874 21.0248 23.9724 21.4998 23.9724C21.9747 23.9724 22.3598 23.5874 22.3598 23.1124V6.44994C22.3598 4.78776 21.0119 3.43994 19.3498 3.43994H6.01977C4.35759 3.43994 3.00977 4.78776 3.00977 6.44994V30.1859C3.00977 31.8481 4.35759 33.1959 6.01977 33.1959H21.4998C21.9747 33.1959 22.3598 32.8109 22.3598 32.3359C22.3598 31.861 21.9747 31.4759 21.4998 31.4759Z" fill="#94A3B8"/>
<path d="M20.6417 18.8662V23.3275C20.6417 24.0397 20.064 24.6175 19.3517 24.6175H9.73047V26.3375H19.3517C21.0139 26.3375 22.3617 24.9896 22.3617 23.3275V18.8662H20.6417Z" fill="#94A3B8"/>
<path d="M4.72977 29.5109V27.6296C4.72977 26.9174 5.30749 26.3396 6.01977 26.3396H15.641V24.6196H6.01977C4.35759 24.6196 3.00977 25.9675 3.00977 27.6296V29.5109H4.72977Z" fill="#94A3B8"/>
</svg>
