<svg width="39" height="39" viewBox="0 0 39 39" fill="none" xmlns="http://www.w3.org/2000/svg">
<path d="M27.9503 22.1C34.0604 22.1 39.0004 17.16 39.0004 11.05C39.0004 4.94005 34.0604 0 27.9503 0C21.8403 0 16.9004 4.93998 16.9004 11.05C16.9004 17.1601 21.8404 22.1 27.9503 22.1ZM27.9503 1.30003C33.3454 1.30003 37.7003 5.655 37.7003 11.05C37.7003 16.4451 33.3454 20.8 27.9503 20.8C22.5553 20.8 18.2003 16.4451 18.2003 11.05C18.2003 5.655 22.5554 1.30003 27.9503 1.30003Z" fill="#94A3B8"/>
<path d="M11.05 16.8999C4.93997 16.8999 0 21.8399 0 27.9499C0 34.0598 4.93997 38.9999 11.05 38.9999C17.1601 38.9999 22.1001 34.0599 22.1001 27.9499C22.1001 21.8398 17.16 16.8999 11.05 16.8999ZM11.05 37.6999C5.655 37.6999 1.30003 33.3449 1.30003 27.9499C1.30003 22.5548 5.655 18.1999 11.05 18.1999C16.4451 18.1999 20.8 22.5548 20.8 27.9499C20.8 33.3449 16.445 37.6999 11.05 37.6999Z" fill="#94A3B8"/>
<path d="M37.6998 20.8C37.3098 20.8 37.0498 21.06 37.0498 21.45C37.0498 30.03 30.0298 37.05 21.4498 37.05C21.0598 37.05 20.7998 37.31 20.7998 37.7C20.7998 38.09 21.0598 38.35 21.4498 38.35C30.7448 38.35 38.3498 30.745 38.3498 21.4499C38.3498 21.06 38.0898 20.8 37.6998 20.8Z" fill="#94A3B8"/>
<path d="M1.30044 18.1998C1.69044 18.1998 1.95042 17.9399 1.95042 17.5499C1.95042 8.96985 8.97042 1.94985 17.5504 1.94985C17.9404 1.94985 18.2004 1.68988 18.2004 1.29988C18.2004 0.909877 17.9404 0.649902 17.5504 0.649902C8.25539 0.649826 0.650391 8.25483 0.650391 17.5499C0.650391 17.9399 0.910441 18.1998 1.30044 18.1998Z" fill="#94A3B8"/>
<path d="M27.3004 11.6572V16.8586C26.4892 16.7534 25.7885 16.4514 25.3504 16.0047V14.3C25.3504 13.91 25.0904 13.65 24.7004 13.65C24.3104 13.65 24.0504 13.91 24.0504 14.3V16.1607C24.0463 16.2039 24.0465 16.2477 24.0504 16.2912V18.2C24.0504 18.59 24.3104 18.85 24.7004 18.85C25.0904 18.85 25.3504 18.59 25.3504 18.2V17.5948C25.9104 17.8957 26.5713 18.0932 27.3004 18.1668V18.8501C27.3004 19.2401 27.5604 19.5 27.9504 19.5C28.3404 19.5 28.6003 19.2401 28.6003 18.8501V18.1572C30.5957 17.8984 32.5003 16.4698 32.5003 14.3001C32.5003 12.1304 30.5957 10.7018 28.6003 10.443V5.23877C29.4386 5.34107 30.1144 5.64393 30.5503 6.09433V7.80012C30.5503 8.19012 30.8103 8.4501 31.2003 8.4501C31.5903 8.4501 31.8503 8.19012 31.8503 7.80012V5.93947C31.8544 5.89621 31.8542 5.85233 31.8503 5.80899V3.90012C31.8503 3.51012 31.5903 3.25015 31.2003 3.25015C30.8103 3.25015 30.5503 3.51012 30.5503 3.90012V4.4772C29.9903 4.1796 29.3294 3.99709 28.6003 3.93014V3.25007C28.6003 2.86007 28.3404 2.6001 27.9504 2.6001C27.5604 2.6001 27.3004 2.86007 27.3004 3.25007V3.94293C25.305 4.20176 23.4004 5.63037 23.4004 7.80005C23.4004 9.9698 25.305 11.3984 27.3004 11.6572ZM31.2004 14.3001C31.2004 15.7003 29.9455 16.6172 28.6004 16.8443V11.7592C29.9455 11.9985 31.2004 12.956 31.2004 14.3001ZM27.3004 5.25918V10.3443C25.9552 10.1173 24.7004 9.20031 24.7004 7.80012C24.7004 6.45592 25.9552 5.49851 27.3004 5.25918Z" fill="#94A3B8"/>
<path d="M16.2497 31.1999C15.8597 31.1999 15.5997 31.4599 15.5997 31.8499C15.5997 32.7599 15.2097 33.1499 14.2997 33.1499H9.09964C9.55461 32.5 9.74961 31.72 9.74961 31.1999V27.9499H11.6996C12.0896 27.9499 12.3496 27.6899 12.3496 27.2999C12.3496 26.9099 12.0896 26.65 11.6996 26.65H9.74969V23.3999C9.74969 22.2949 10.5947 21.4499 11.6997 21.4499C12.8047 21.4499 13.6497 22.2949 13.6497 23.3999C13.6497 23.7899 13.9097 24.0499 14.2997 24.0499C14.6897 24.0499 14.9496 23.7899 14.9496 23.3999C14.9496 21.58 13.5197 20.1499 11.6996 20.1499C9.87963 20.1499 8.44958 21.5799 8.44958 23.3999V26.65H6.49958C6.10958 26.65 5.84961 26.9099 5.84961 27.2999C5.84961 27.6899 6.10958 27.9499 6.49958 27.9499H8.44958V31.1999C8.44958 31.3949 8.31956 33.1499 6.49958 33.1499C6.10958 33.1499 5.84961 33.4099 5.84961 33.7999C5.84961 34.1899 6.10958 34.4499 6.49958 34.4499H14.2996C15.9246 34.4499 16.8996 33.4749 16.8996 31.8499C16.8997 31.4599 16.6397 31.1999 16.2497 31.1999Z" fill="#94A3B8"/>
</svg>
