<svg width="45" height="45" viewBox="0 0 45 45" fill="none" xmlns="http://www.w3.org/2000/svg">
<path d="M5.62402 39.375C5.12674 39.375 4.64983 39.1775 4.2982 38.8258C3.94657 38.4742 3.74902 37.9973 3.74902 37.5V7.5C3.74902 7.00272 3.94657 6.52581 4.2982 6.17417C4.64983 5.82254 5.12674 5.625 5.62402 5.625H19.5253L23.2753 9.375H37.499C37.9963 9.375 38.4732 9.57254 38.8249 9.92418C39.1765 10.2758 39.374 10.7527 39.374 11.25V16.875H35.624V13.125H21.7228L17.9728 9.375H7.49902V31.8712L10.3115 20.625H42.1865L37.8553 37.9556C37.7537 38.3611 37.5196 38.721 37.19 38.9781C36.8605 39.2353 36.4545 39.375 36.0365 39.375H5.62402ZM37.3828 24.375H13.2403L10.4278 35.625H34.5703L37.3828 24.375Z" fill="#94A3B8"/>
</svg>
