<svg width="20" height="20" viewBox="0 0 20 20" fill="none" xmlns="http://www.w3.org/2000/svg">
<g clip-path="url(#clip0_1_19353)">
<path d="M16.6667 1.66675C17.1267 1.66675 17.5 2.04008 17.5 2.50008V5.63091L15.8333 7.29758V3.33341H4.16667V16.6667H15.8333V14.3684L17.5 12.7017V17.5001C17.5 17.9601 17.1267 18.3334 16.6667 18.3334H3.33333C2.87333 18.3334 2.5 17.9601 2.5 17.5001V2.50008C2.5 2.04008 2.87333 1.66675 3.33333 1.66675H16.6667ZM18.1483 7.34008L19.3267 8.51841L12.845 15.0001L11.665 14.9984L11.6667 13.8217L18.1483 7.34008ZM10.8333 10.0001V11.6667H6.66667V10.0001H10.8333ZM13.3333 6.66675V8.33342H6.66667V6.66675H13.3333Z" fill="white"/>
</g>
<defs>
<clipPath id="clip0_1_19353">
<rect width="20" height="20" fill="white"/>
</clipPath>
</defs>
</svg>
