<svg width="24" height="24" viewBox="0 0 24 24" fill="none" xmlns="http://www.w3.org/2000/svg">
<g clip-path="url(#clip0_1_18835)">
<mask id="path-1-inside-1_1_18835" fill="white">
<path d="M3 5C3 4.44772 3.44772 4 4 4H20C20.5523 4 21 4.44772 21 5C21 5.55228 20.5523 6 20 6H4C3.44772 6 3 5.55228 3 5ZM3 12C3 11.4477 3.44772 11 4 11H20C20.5523 11 21 11.4477 21 12C21 12.5523 20.5523 13 20 13H4C3.44772 13 3 12.5523 3 12ZM3 19C3 18.4477 3.44772 18 4 18H20C20.5523 18 21 18.4477 21 19C21 19.5523 20.5523 20 20 20H4C3.44772 20 3 19.5523 3 19Z"/>
</mask>
<path d="M3 5C3 4.44772 3.44772 4 4 4H20C20.5523 4 21 4.44772 21 5C21 5.55228 20.5523 6 20 6H4C3.44772 6 3 5.55228 3 5ZM3 12C3 11.4477 3.44772 11 4 11H20C20.5523 11 21 11.4477 21 12C21 12.5523 20.5523 13 20 13H4C3.44772 13 3 12.5523 3 12ZM3 19C3 18.4477 3.44772 18 4 18H20C20.5523 18 21 18.4477 21 19C21 19.5523 20.5523 20 20 20H4C3.44772 20 3 19.5523 3 19Z" fill="#09121F"/>
<path d="M4 6H20V2H4V6ZM20 4H4V8H20V4ZM4 13H20V9H4V13ZM20 11H4V15H20V11ZM4 20H20V16H4V20ZM20 18H4V22H20V18ZM4 18C4.55228 18 5 18.4477 5 19H1C1 20.6569 2.34315 22 4 22V18ZM19 19C19 18.4477 19.4477 18 20 18V22C21.6569 22 23 20.6569 23 19H19ZM20 20C19.4477 20 19 19.5523 19 19H23C23 17.3431 21.6569 16 20 16V20ZM4 16C2.34315 16 1 17.3431 1 19H5C5 19.5523 4.55228 20 4 20V16ZM4 11C4.55228 11 5 11.4477 5 12H1C1 13.6569 2.34315 15 4 15V11ZM19 12C19 11.4477 19.4477 11 20 11V15C21.6569 15 23 13.6569 23 12H19ZM20 13C19.4477 13 19 12.5523 19 12H23C23 10.3431 21.6569 9 20 9V13ZM4 9C2.34315 9 1 10.3431 1 12H5C5 12.5523 4.55228 13 4 13V9ZM4 4C4.55228 4 5 4.44771 5 5H1C1 6.65686 2.34315 8 4 8V4ZM19 5C19 4.44772 19.4477 4 20 4V8C21.6569 8 23 6.65685 23 5H19ZM20 6C19.4477 6 19 5.55229 19 5H23C23 3.34314 21.6569 2 20 2V6ZM4 2C2.34315 2 1 3.34315 1 5H5C5 5.55228 4.55228 6 4 6V2Z" fill="#D69E5A" mask="url(#path-1-inside-1_1_18835)"/>
</g>
<defs>
<clipPath id="clip0_1_18835">
<rect width="24" height="24" fill="white"/>
</clipPath>
</defs>
</svg>
