<svg width="20" height="20" viewBox="0 0 20 20" fill="none" xmlns="http://www.w3.org/2000/svg">
<g clip-path="url(#clip0_1_19381)">
<path d="M7.23848 3.33336L9.41098 1.16086C9.56725 1.00463 9.77918 0.91687 10.0001 0.91687C10.2211 0.91687 10.433 1.00463 10.5893 1.16086L12.7618 3.33336H15.8335C16.0545 3.33336 16.2665 3.42116 16.4227 3.57744C16.579 3.73372 16.6668 3.94568 16.6668 4.16669V7.23836L18.8393 9.41086C18.9955 9.56713 19.0833 9.77905 19.0833 10C19.0833 10.221 18.9955 10.4329 18.8393 10.5892L16.6668 12.7617V15.8334C16.6668 16.0544 16.579 16.2663 16.4227 16.4226C16.2665 16.5789 16.0545 16.6667 15.8335 16.6667H12.7618L10.5893 18.8392C10.433 18.9954 10.2211 19.0832 10.0001 19.0832C9.77918 19.0832 9.56725 18.9954 9.41098 18.8392L7.23848 16.6667H4.16681C3.9458 16.6667 3.73384 16.5789 3.57756 16.4226C3.42128 16.2663 3.33348 16.0544 3.33348 15.8334V12.7617L1.16098 10.5892C1.00476 10.4329 0.916992 10.221 0.916992 10C0.916992 9.77905 1.00476 9.56713 1.16098 9.41086L3.33348 7.23836V4.16669C3.33348 3.94568 3.42128 3.73372 3.57756 3.57744C3.73384 3.42116 3.9458 3.33336 4.16681 3.33336H7.23848ZM5.00015 5.00003V7.92919L2.92931 10L5.00015 12.0709V15H7.92931L10.0001 17.0709L12.071 15H15.0001V12.0709L17.071 10L15.0001 7.92919V5.00003H12.071L10.0001 2.92919L7.92931 5.00003H5.00015ZM10.0001 13.3334C9.11609 13.3334 8.26825 12.9822 7.64313 12.357C7.018 11.7319 6.66681 10.8841 6.66681 10C6.66681 9.11597 7.018 8.26812 7.64313 7.643C8.26825 7.01788 9.11609 6.66669 10.0001 6.66669C10.8842 6.66669 11.732 7.01788 12.3572 7.643C12.9823 8.26812 13.3335 9.11597 13.3335 10C13.3335 10.8841 12.9823 11.7319 12.3572 12.357C11.732 12.9822 10.8842 13.3334 10.0001 13.3334ZM10.0001 11.6667C10.4422 11.6667 10.8661 11.4911 11.1787 11.1785C11.4912 10.866 11.6668 10.4421 11.6668 10C11.6668 9.558 11.4912 9.13407 11.1787 8.82151C10.8661 8.50895 10.4422 8.33336 10.0001 8.33336C9.55812 8.33336 9.1342 8.50895 8.82164 8.82151C8.50908 9.13407 8.33348 9.558 8.33348 10C8.33348 10.4421 8.50908 10.866 8.82164 11.1785C9.1342 11.4911 9.55812 11.6667 10.0001 11.6667Z" fill="white"/>
</g>
<defs>
<clipPath id="clip0_1_19381">
<rect width="20" height="20" fill="white"/>
</clipPath>
</defs>
</svg>
