<svg width="20" height="20" viewBox="0 0 20 20" fill="none" xmlns="http://www.w3.org/2000/svg">
<g clip-path="url(#clip0_1_19374)">
<path d="M5.41699 9.58337C4.92454 9.58337 4.4369 9.48638 3.98193 9.29792C3.52696 9.10947 3.11356 8.83324 2.76534 8.48502C2.41712 8.1368 2.1409 7.72341 1.95244 7.26844C1.76399 6.81347 1.66699 6.32583 1.66699 5.83337C1.66699 5.34092 1.76399 4.85328 1.95244 4.39831C2.1409 3.94334 2.41712 3.52994 2.76534 3.18172C3.11356 2.8335 3.52696 2.55728 3.98193 2.36883C4.4369 2.18037 4.92454 2.08337 5.41699 2.08337C6.41155 2.08337 7.36538 2.47846 8.06864 3.18172C8.7719 3.88498 9.16699 4.83881 9.16699 5.83337C9.16699 6.82794 8.7719 7.78176 8.06864 8.48502C7.36538 9.18829 6.41155 9.58337 5.41699 9.58337ZM5.83366 17.9167C4.8391 17.9167 3.88527 17.5216 3.18201 16.8184C2.47875 16.1151 2.08366 15.1613 2.08366 14.1667C2.08366 13.1721 2.47875 12.2183 3.18201 11.5151C3.88527 10.8118 4.8391 10.4167 5.83366 10.4167C6.82822 10.4167 7.78205 10.8118 8.48531 11.5151C9.18857 12.2183 9.58366 13.1721 9.58366 14.1667C9.58366 15.1613 9.18857 16.1151 8.48531 16.8184C7.78205 17.5216 6.82822 17.9167 5.83366 17.9167ZM14.167 9.58337C13.6745 9.58337 13.1869 9.48638 12.7319 9.29792C12.277 9.10947 11.8636 8.83324 11.5153 8.48502C11.1671 8.1368 10.8909 7.72341 10.7024 7.26844C10.514 6.81347 10.417 6.32583 10.417 5.83337C10.417 5.34092 10.514 4.85328 10.7024 4.39831C10.8909 3.94334 11.1671 3.52994 11.5153 3.18172C11.8636 2.8335 12.277 2.55728 12.7319 2.36883C13.1869 2.18037 13.6745 2.08337 14.167 2.08337C15.1616 2.08337 16.1154 2.47846 16.8186 3.18172C17.5219 3.88498 17.917 4.83881 17.917 5.83337C17.917 6.82794 17.5219 7.78176 16.8186 8.48502C16.1154 9.18829 15.1616 9.58337 14.167 9.58337ZM14.167 17.9167C13.1724 17.9167 12.2186 17.5216 11.5153 16.8184C10.8121 16.1151 10.417 15.1613 10.417 14.1667C10.417 13.1721 10.8121 12.2183 11.5153 11.5151C12.2186 10.8118 13.1724 10.4167 14.167 10.4167C15.1616 10.4167 16.1154 10.8118 16.8186 11.5151C17.5219 12.2183 17.917 13.1721 17.917 14.1667C17.917 15.1613 17.5219 16.1151 16.8186 16.8184C16.1154 17.5216 15.1616 17.9167 14.167 17.9167ZM5.41699 7.91671C5.96953 7.91671 6.49943 7.69721 6.89013 7.30651C7.28083 6.91581 7.50033 6.38591 7.50033 5.83337C7.50033 5.28084 7.28083 4.75094 6.89013 4.36023C6.49943 3.96953 5.96953 3.75004 5.41699 3.75004C4.86446 3.75004 4.33455 3.96953 3.94385 4.36023C3.55315 4.75094 3.33366 5.28084 3.33366 5.83337C3.33366 6.38591 3.55315 6.91581 3.94385 7.30651C4.33455 7.69721 4.86446 7.91671 5.41699 7.91671ZM5.83366 16.25C6.38619 16.25 6.9161 16.0305 7.3068 15.6398C7.6975 15.2491 7.91699 14.7192 7.91699 14.1667C7.91699 13.6142 7.6975 13.0843 7.3068 12.6936C6.9161 12.3029 6.38619 12.0834 5.83366 12.0834C5.28112 12.0834 4.75122 12.3029 4.36052 12.6936C3.96982 13.0843 3.75033 13.6142 3.75033 14.1667C3.75033 14.7192 3.96982 15.2491 4.36052 15.6398C4.75122 16.0305 5.28112 16.25 5.83366 16.25ZM14.167 7.91671C14.7195 7.91671 15.2494 7.69721 15.6401 7.30651C16.0308 6.91581 16.2503 6.38591 16.2503 5.83337C16.2503 5.28084 16.0308 4.75094 15.6401 4.36023C15.2494 3.96953 14.7195 3.75004 14.167 3.75004C13.6145 3.75004 13.0846 3.96953 12.6939 4.36023C12.3032 4.75094 12.0837 5.28084 12.0837 5.83337C12.0837 6.38591 12.3032 6.91581 12.6939 7.30651C13.0846 7.69721 13.6145 7.91671 14.167 7.91671ZM14.167 16.25C14.7195 16.25 15.2494 16.0305 15.6401 15.6398C16.0308 15.2491 16.2503 14.7192 16.2503 14.1667C16.2503 13.6142 16.0308 13.0843 15.6401 12.6936C15.2494 12.3029 14.7195 12.0834 14.167 12.0834C13.6145 12.0834 13.0846 12.3029 12.6939 12.6936C12.3032 13.0843 12.0837 13.6142 12.0837 14.1667C12.0837 14.7192 12.3032 15.2491 12.6939 15.6398C13.0846 16.0305 13.6145 16.25 14.167 16.25Z" fill="white"/>
</g>
<defs>
<clipPath id="clip0_1_19374">
<rect width="20" height="20" fill="white"/>
</clipPath>
</defs>
</svg>
