<svg width="20" height="20" viewBox="0 0 20 20" fill="none" xmlns="http://www.w3.org/2000/svg">
<g clip-path="url(#clip0_1_19371)">
<path d="M2.5 4.1625C2.5 3.24417 3.24417 2.5 4.1625 2.5H15.8375C16.7558 2.5 17.5 3.24417 17.5 4.1625V15.8375C17.5 16.2784 17.3248 16.7013 17.0131 17.0131C16.7013 17.3248 16.2784 17.5 15.8375 17.5H4.1625C3.72158 17.5 3.29871 17.3248 2.98693 17.0131C2.67516 16.7013 2.5 16.2784 2.5 15.8375V4.1625ZM4.16667 4.16667V15.8333H15.8333V4.16667H4.16667ZM6.64333 15.15C6.13082 14.928 5.64196 14.655 5.18417 14.335C5.71272 13.5159 6.4383 12.8424 7.29449 12.3762C8.15068 11.91 9.11013 11.6661 10.085 11.6667C12.085 11.6667 13.8492 12.6725 14.9 14.2058C14.451 14.538 13.9697 14.8242 13.4633 15.06C13.0774 14.525 12.5698 14.0894 11.9824 13.7892C11.395 13.489 10.7447 13.3327 10.085 13.3333C8.65583 13.3333 7.39333 14.0533 6.64333 15.15ZM10 10.8333C9.61698 10.8333 9.23771 10.7579 8.88384 10.6113C8.52997 10.4647 8.20844 10.2499 7.93761 9.97906C7.66677 9.70822 7.45193 9.38669 7.30535 9.03283C7.15877 8.67896 7.08333 8.29969 7.08333 7.91667C7.08333 7.53364 7.15877 7.15437 7.30535 6.80051C7.45193 6.44664 7.66677 6.12511 7.93761 5.85427C8.20844 5.58343 8.52997 5.36859 8.88384 5.22202C9.23771 5.07544 9.61698 5 10 5C10.7735 5 11.5154 5.30729 12.0624 5.85427C12.6094 6.40125 12.9167 7.14312 12.9167 7.91667C12.9167 8.69021 12.6094 9.43208 12.0624 9.97906C11.5154 10.526 10.7735 10.8333 10 10.8333ZM10 9.16667C10.3315 9.16667 10.6495 9.03497 10.8839 8.80055C11.1183 8.56613 11.25 8.24819 11.25 7.91667C11.25 7.58515 11.1183 7.2672 10.8839 7.03278C10.6495 6.79836 10.3315 6.66667 10 6.66667C9.66848 6.66667 9.35054 6.79836 9.11612 7.03278C8.8817 7.2672 8.75 7.58515 8.75 7.91667C8.75 8.24819 8.8817 8.56613 9.11612 8.80055C9.35054 9.03497 9.66848 9.16667 10 9.16667Z" fill="white"/>
</g>
<defs>
<clipPath id="clip0_1_19371">
<rect width="20" height="20" fill="white"/>
</clipPath>
</defs>
</svg>
