<svg width="20" height="20" viewBox="0 0 20 20" fill="none" xmlns="http://www.w3.org/2000/svg">
<path d="M10.0003 1.66675C5.40533 1.66675 1.66699 5.40508 1.66699 10.0001V13.4526C1.66699 14.3059 2.41449 15.0001 3.33366 15.0001H4.16699C4.38801 15.0001 4.59997 14.9123 4.75625 14.756C4.91253 14.5997 5.00033 14.3878 5.00033 14.1667V9.88091C5.00033 9.6599 4.91253 9.44794 4.75625 9.29166C4.59997 9.13538 4.38801 9.04758 4.16699 9.04758H3.41033C3.87366 5.82258 6.64866 3.33341 10.0003 3.33341C13.352 3.33341 16.127 5.82258 16.5903 9.04758H15.8337C15.6126 9.04758 15.4007 9.13538 15.2444 9.29166C15.0881 9.44794 15.0003 9.6599 15.0003 9.88091V15.0001C15.0003 15.9192 14.2528 16.6667 13.3337 16.6667H11.667V15.8334H8.33366V18.3334H13.3337C15.172 18.3334 16.667 16.8384 16.667 15.0001C17.5862 15.0001 18.3337 14.3059 18.3337 13.4526V10.0001C18.3337 5.40508 14.5953 1.66675 10.0003 1.66675Z" fill="white"/>
</svg>
