<svg width="16" height="16" viewBox="0 0 16 16" fill="none" xmlns="http://www.w3.org/2000/svg">
<g clip-path="url(#clip0_1_18442)">
<path d="M2.86563 14.8499C2.78763 15.2939 3.22563 15.6409 3.61163 15.4429L8.00163 13.1869L12.3906 15.4429C12.7766 15.6409 13.2146 15.2939 13.1366 14.8509L12.3066 10.1209L15.8286 6.76492C16.1586 6.45092 15.9886 5.87692 15.5466 5.81492L10.6486 5.11892L8.46463 0.791923C8.42303 0.704212 8.35739 0.630106 8.27534 0.578215C8.19329 0.526325 8.09821 0.498779 8.00113 0.498779C7.90405 0.498779 7.80897 0.526325 7.72692 0.578215C7.64487 0.630106 7.57924 0.704212 7.53763 0.791923L5.35363 5.11992L0.45563 5.81592C0.01463 5.87792 -0.15637 6.45192 0.17263 6.76592L3.69563 10.1219L2.86563 14.8519V14.8499ZM7.77063 12.0829L4.08463 13.9769L4.77863 10.0199C4.79489 9.92884 4.78853 9.83515 4.76011 9.7471C4.73168 9.65904 4.68207 9.57932 4.61563 9.51492L1.70963 6.74492L5.76163 6.16892C5.84553 6.15625 5.92512 6.12343 5.99356 6.07327C6.06201 6.02312 6.11728 5.95711 6.15463 5.88092L7.99963 2.22292L9.84663 5.88092C9.88399 5.95711 9.93925 6.02312 10.0077 6.07327C10.0761 6.12343 10.1557 6.15625 10.2396 6.16892L14.2916 6.74392L11.3856 9.51392C11.319 9.57842 11.2693 9.65831 11.2409 9.74655C11.2125 9.8348 11.2062 9.92868 11.2226 10.0199L11.9166 13.9769L8.23063 12.0829C8.15935 12.0462 8.08032 12.027 8.00013 12.027C7.91994 12.027 7.84191 12.0462 7.77063 12.0829Z" fill="white"/>
</g>
<defs>
<clipPath id="clip0_1_18442">
<rect width="16" height="16" fill="white"/>
</clipPath>
</defs>
</svg>
