<svg width="66" height="71" viewBox="0 0 66 71" fill="none" xmlns="http://www.w3.org/2000/svg">
<g filter="url(#filter0_d_1_18775)">
<circle cx="33" cy="29" r="29" fill="#D69E5A"/>
</g>
<g clip-path="url(#clip0_1_18775)">
<path d="M36.728 26.686L35.314 25.272L26 34.586V36H27.414L36.728 26.686ZM38.142 25.272L39.556 23.858L38.142 22.444L36.728 23.858L38.142 25.272ZM28.242 38H24V33.757L37.435 20.322C37.6225 20.1345 37.8768 20.0292 38.142 20.0292C38.4072 20.0292 38.6615 20.1345 38.849 20.322L41.678 23.151C41.8655 23.3385 41.9708 23.5928 41.9708 23.858C41.9708 24.1231 41.8655 24.3774 41.678 24.565L28.243 38H28.242Z" fill="white"/>
</g>
<defs>
<filter id="filter0_d_1_18775" x="0" y="0" width="66" height="71" filterUnits="userSpaceOnUse" color-interpolation-filters="sRGB">
<feFlood flood-opacity="0" result="BackgroundImageFix"/>
<feColorMatrix in="SourceAlpha" type="matrix" values="0 0 0 0 0 0 0 0 0 0 0 0 0 0 0 0 0 0 127 0" result="hardAlpha"/>
<feOffset dy="9"/>
<feGaussianBlur stdDeviation="2"/>
<feComposite in2="hardAlpha" operator="out"/>
<feColorMatrix type="matrix" values="0 0 0 0 0 0 0 0 0 0 0 0 0 0 0 0 0 0 0.25 0"/>
<feBlend mode="normal" in2="BackgroundImageFix" result="effect1_dropShadow_1_18775"/>
<feBlend mode="normal" in="SourceGraphic" in2="effect1_dropShadow_1_18775" result="shape"/>
</filter>
<clipPath id="clip0_1_18775">
<rect width="24" height="24" fill="white" transform="translate(21 17)"/>
</clipPath>
</defs>
</svg>
