<svg width="20" height="20" viewBox="0 0 20 20" fill="none" xmlns="http://www.w3.org/2000/svg">
<path d="M5.625 3.75C5.625 2.9212 5.95424 2.12634 6.54029 1.54029C7.12634 0.95424 7.9212 0.625 8.75 0.625C9.5788 0.625 10.3737 0.95424 10.9597 1.54029C11.5458 2.12634 11.875 2.9212 11.875 3.75V15C11.875 15.4973 11.6775 15.9742 11.3258 16.3258C10.9742 16.6775 10.4973 16.875 10 16.875C9.50272 16.875 9.02581 16.6775 8.67417 16.3258C8.32254 15.9742 8.125 15.4973 8.125 15V6.25C8.125 6.08424 8.19085 5.92527 8.30806 5.80806C8.42527 5.69085 8.58424 5.625 8.75 5.625C8.91576 5.625 9.07473 5.69085 9.19194 5.80806C9.30915 5.92527 9.375 6.08424 9.375 6.25V15C9.375 15.1658 9.44085 15.3247 9.55806 15.4419C9.67527 15.5592 9.83424 15.625 10 15.625C10.1658 15.625 10.3247 15.5592 10.4419 15.4419C10.5592 15.3247 10.625 15.1658 10.625 15V3.75C10.625 3.50377 10.5765 3.25995 10.4823 3.03247C10.388 2.80498 10.2499 2.59828 10.0758 2.42417C9.90172 2.25006 9.69502 2.11195 9.46753 2.01773C9.24005 1.9235 8.99623 1.875 8.75 1.875C8.50377 1.875 8.25995 1.9235 8.03247 2.01773C7.80498 2.11195 7.59828 2.25006 7.42417 2.42417C7.25006 2.59828 7.11195 2.80498 7.01773 3.03247C6.9235 3.25995 6.875 3.50377 6.875 3.75V15C6.875 15.8288 7.20424 16.6237 7.79029 17.2097C8.37634 17.7958 9.1712 18.125 10 18.125C10.8288 18.125 11.6237 17.7958 12.2097 17.2097C12.7958 16.6237 13.125 15.8288 13.125 15V6.25C13.125 6.08424 13.1908 5.92527 13.3081 5.80806C13.4253 5.69085 13.5842 5.625 13.75 5.625C13.9158 5.625 14.0747 5.69085 14.1919 5.80806C14.3092 5.92527 14.375 6.08424 14.375 6.25V15C14.375 16.1603 13.9141 17.2731 13.0936 18.0936C12.2731 18.9141 11.1603 19.375 10 19.375C8.83968 19.375 7.72688 18.9141 6.90641 18.0936C6.08594 17.2731 5.625 16.1603 5.625 15V3.75Z" fill="white"/>
</svg>
