<svg width="22" height="22" viewBox="0 0 22 22" fill="none" xmlns="http://www.w3.org/2000/svg">
<path d="M11.4826 12.486V14.3106C10.6093 14.0312 9.67464 13.9455 8.75713 14.0607C7.83962 14.1759 6.96606 14.4886 6.20979 14.9725C5.45352 15.4564 4.83664 16.0975 4.41093 16.8418C3.98523 17.5861 3.76314 18.412 3.76332 19.2501L1.8335 19.2492C1.8332 18.1832 2.10263 17.1312 2.62115 16.1739C3.13967 15.2166 3.89352 14.3795 4.82493 13.7265C5.75634 13.0736 6.8406 12.6223 7.99461 12.4071C9.14862 12.1919 10.3418 12.2186 11.4826 12.4851V12.486ZM9.55279 11.3929C6.35411 11.3929 3.76332 9.04889 3.76332 6.15484C3.76332 3.2608 6.35411 0.916748 9.55279 0.916748C12.7515 0.916748 15.3423 3.2608 15.3423 6.15484C15.3423 9.04889 12.7515 11.3929 9.55279 11.3929ZM9.55279 9.64691C11.6853 9.64691 13.4124 8.08421 13.4124 6.15484C13.4124 4.22548 11.6853 2.66278 9.55279 2.66278C7.42034 2.66278 5.69315 4.22548 5.69315 6.15484C5.69315 8.08421 7.42034 9.64691 9.55279 9.64691ZM15.3423 14.885V12.266H17.2721V14.885H20.1668V16.631H17.2721V19.2501H15.3423V16.631H12.4475V14.885H15.3423Z" fill="white"/>
</svg>
