<?xml version="1.0" encoding="UTF-8"?>
<svg xmlns="http://www.w3.org/2000/svg" xmlns:xlink="http://www.w3.org/1999/xlink" width="36px" height="20px" viewBox="0 0 36 20" version="1.1">
<defs>
<clipPath id="clip1">
  <path d="M 6 10 L 16 10 L 16 16 L 6 16 Z M 6 10 "/>
</clipPath>
<clipPath id="clip2">
  <path d="M 15.59375 4.851562 C 15.59375 4.851562 15.78125 6.410156 15.78125 9.523438 C 15.753906 12.707031 12.898438 14.320312 10.800781 15.167969 C 8.703125 14.320312 5.847656 12.707031 5.820312 9.523438 C 5.820312 6.410156 6.007812 4.851562 6.007812 4.851562 Z M 15.59375 4.851562 "/>
</clipPath>
</defs>
<g id="surface1">
<rect x="0" y="0" width="36" height="20" style="fill:rgb(100%,100%,100%);fill-opacity:1;stroke:none;"/>
<path style=" stroke:none;fill-rule:nonzero;fill:rgb(4.313725%,30.588235%,63.529412%);fill-opacity:1;" d="M 0 6.667969 L 36 6.667969 L 36 20 L 0 20 Z M 0 6.667969 "/>
<path style=" stroke:none;fill-rule:nonzero;fill:rgb(93.333333%,10.980392%,14.509804%);fill-opacity:1;" d="M 0 13.332031 L 36 13.332031 L 36 20 L 0 20 Z M 0 13.332031 "/>
<path style=" stroke:none;fill-rule:nonzero;fill:rgb(93.333333%,10.980392%,14.509804%);fill-opacity:1;" d="M 15.59375 4.851562 C 15.59375 4.851562 15.78125 6.410156 15.78125 9.523438 C 15.753906 12.707031 12.898438 14.320312 10.800781 15.167969 C 8.703125 14.320312 5.847656 12.707031 5.820312 9.523438 C 5.820312 6.410156 6.007812 4.851562 6.007812 4.851562 Z M 15.59375 4.851562 "/>
<path style=" stroke:none;fill-rule:nonzero;fill:rgb(100%,100%,100%);fill-opacity:1;" d="M 10.375 13.332031 L 10.375 9.4375 C 8.792969 9.4375 8.34375 9.554688 7.871094 9.671875 C 7.914062 9.273438 7.914062 8.875 7.871094 8.476562 C 8.34375 8.59375 8.792969 8.710938 10.375 8.710938 L 10.375 7.628906 C 9.875 7.628906 9.1875 7.644531 8.394531 7.871094 C 8.4375 7.46875 8.4375 7.070312 8.394531 6.667969 C 9.1875 6.890625 9.875 6.910156 10.375 6.910156 C 10.375 6.59375 10.261719 5.917969 10.113281 5.359375 C 10.570312 5.394531 11.03125 5.394531 11.488281 5.359375 C 11.339844 5.917969 11.222656 6.59375 11.222656 6.910156 C 11.722656 6.910156 12.414062 6.890625 13.207031 6.667969 C 13.160156 7.070312 13.160156 7.46875 13.207031 7.871094 C 12.414062 7.644531 11.722656 7.628906 11.222656 7.628906 L 11.222656 8.710938 C 12.808594 8.710938 13.257812 8.59375 13.730469 8.476562 C 13.683594 8.875 13.683594 9.273438 13.730469 9.671875 C 13.257812 9.554688 12.808594 9.4375 11.222656 9.4375 L 11.222656 13.332031 Z M 10.375 13.332031 "/>
<g clip-path="url(#clip1)" clip-rule="nonzero">
<g clip-path="url(#clip2)" clip-rule="nonzero">
<path style=" stroke:none;fill-rule:nonzero;fill:rgb(4.313725%,30.588235%,63.529412%);fill-opacity:1;" d="M 8.210938 16.398438 C 7.46875 16.398438 6.8125 15.707031 6.59375 14.691406 C 6.375 13.679688 6.648438 12.585938 7.265625 11.992188 C 7.878906 11.398438 8.695312 11.449219 9.273438 12.117188 C 9.640625 11.394531 10.203125 10.972656 10.800781 10.972656 C 11.394531 10.972656 11.957031 11.394531 12.328125 12.117188 C 12.902344 11.449219 13.71875 11.398438 14.335938 11.992188 C 14.949219 12.585938 15.222656 13.679688 15.003906 14.691406 C 14.789062 15.707031 14.132812 16.398438 13.390625 16.398438 Z M 8.210938 16.398438 "/>
</g>
</g>
<path style="fill:none;stroke-width:108;stroke-linecap:butt;stroke-linejoin:miter;stroke:rgb(100%,100%,100%);stroke-opacity:1;stroke-miterlimit:4;" d="M 4678.125 1746.5625 C 4678.125 1746.5625 4734.375 2307.65625 4734.375 3428.4375 C 4726.171875 4574.53125 3869.53125 5155.3125 3240.234375 5460.46875 C 2610.9375 5155.3125 1754.296875 4574.53125 1746.09375 3428.4375 C 1746.09375 2307.65625 1802.34375 1746.5625 1802.34375 1746.5625 Z M 4678.125 1746.5625 " transform="matrix(0.00333333,0,0,0.00277778,0,0)"/>
</g>
</svg>
