<svg width="328" height="58" viewBox="0 0 328 58" fill="none" xmlns="http://www.w3.org/2000/svg">
<g filter="url(#filter0_d_1_19612)">
<rect x="4.5" y="0.5" width="319" height="49" stroke="black" shape-rendering="crispEdges"/>
<g filter="url(#filter1_d_1_19612)">
<rect x="4" width="320" height="50" rx="4" fill="white" fill-opacity="0.2" shape-rendering="crispEdges"/>
<rect x="4.5" y="0.5" width="319" height="49" rx="3.5" stroke="#D69E5A" shape-rendering="crispEdges"/>
</g>
<path d="M135.641 16.6348H138.375V28.3926H142.359V31H135.641V16.6348ZM149.146 20.1016C150.149 20.1016 151.09 20.3522 151.969 20.8535C152.854 21.3548 153.544 22.0352 154.039 22.8945C154.534 23.7539 154.781 24.6816 154.781 25.6777C154.781 26.6803 154.531 27.6178 154.029 28.4902C153.535 29.3626 152.857 30.0462 151.998 30.541C151.139 31.0293 150.191 31.2734 149.156 31.2734C147.633 31.2734 146.331 30.7331 145.25 29.6523C144.176 28.5651 143.639 27.2467 143.639 25.6973C143.639 24.0371 144.247 22.6536 145.465 21.5469C146.533 20.5833 147.76 20.1016 149.146 20.1016ZM149.186 22.6113C148.359 22.6113 147.669 22.901 147.115 23.4805C146.568 24.0534 146.295 24.7891 146.295 25.6875C146.295 26.612 146.565 27.3607 147.105 27.9336C147.652 28.5065 148.342 28.793 149.176 28.793C150.009 28.793 150.702 28.5033 151.256 27.9238C151.809 27.3444 152.086 26.599 152.086 25.6875C152.086 24.776 151.812 24.0371 151.266 23.4707C150.725 22.8978 150.032 22.6113 149.186 22.6113ZM164.82 20.375H167.477V29.4766C167.477 31.2734 167.115 32.5951 166.393 33.4414C165.423 34.5872 163.961 35.1602 162.008 35.1602C160.966 35.1602 160.09 35.0299 159.381 34.7695C158.671 34.5091 158.072 34.125 157.584 33.6172C157.096 33.1159 156.734 32.5039 156.5 31.7812H159.439C159.7 32.0807 160.035 32.3053 160.445 32.4551C160.855 32.6113 161.34 32.6895 161.9 32.6895C162.617 32.6895 163.193 32.5788 163.629 32.3574C164.065 32.1361 164.371 31.8496 164.547 31.498C164.729 31.1465 164.82 30.541 164.82 29.6816C164.352 30.1504 163.86 30.4889 163.346 30.6973C162.831 30.8991 162.249 31 161.598 31C160.172 31 158.967 30.4857 157.984 29.457C157.001 28.4284 156.51 27.1263 156.51 25.5508C156.51 23.8646 157.031 22.5104 158.072 21.4883C159.016 20.5638 160.143 20.1016 161.451 20.1016C162.063 20.1016 162.639 20.2155 163.18 20.4434C163.727 20.6647 164.273 21.0326 164.82 21.5469V20.375ZM162.057 22.5918C161.217 22.5918 160.523 22.875 159.977 23.4414C159.43 24.0013 159.156 24.7077 159.156 25.5605C159.156 26.446 159.436 27.1719 159.996 27.7383C160.556 28.3047 161.259 28.5879 162.105 28.5879C162.932 28.5879 163.613 28.3112 164.146 27.7578C164.687 27.2044 164.957 26.4785 164.957 25.5801C164.957 24.6947 164.687 23.9753 164.146 23.4219C163.606 22.8685 162.91 22.5918 162.057 22.5918ZM175.875 16.6348H178.59V31H175.875V16.6348ZM181.383 20.375H184.039V21.459C184.645 20.9512 185.191 20.5996 185.68 20.4043C186.174 20.2025 186.679 20.1016 187.193 20.1016C188.248 20.1016 189.143 20.4694 189.879 21.2051C190.497 21.8301 190.807 22.7546 190.807 23.9785V31H188.17V26.3418C188.17 25.0723 188.111 24.2292 187.994 23.8125C187.883 23.3958 187.685 23.0801 187.398 22.8652C187.118 22.6439 186.77 22.5332 186.354 22.5332C185.813 22.5332 185.348 22.7155 184.957 23.0801C184.573 23.4382 184.306 23.9362 184.156 24.5742C184.078 24.9062 184.039 25.6257 184.039 26.7324V31H181.383V20.375Z" fill="#D69E5A"/>
</g>
<defs>
<filter id="filter0_d_1_19612" x="0" y="0" width="328" height="58" filterUnits="userSpaceOnUse" color-interpolation-filters="sRGB">
<feFlood flood-opacity="0" result="BackgroundImageFix"/>
<feColorMatrix in="SourceAlpha" type="matrix" values="0 0 0 0 0 0 0 0 0 0 0 0 0 0 0 0 0 0 127 0" result="hardAlpha"/>
<feOffset dy="4"/>
<feGaussianBlur stdDeviation="2"/>
<feComposite in2="hardAlpha" operator="out"/>
<feColorMatrix type="matrix" values="0 0 0 0 0 0 0 0 0 0 0 0 0 0 0 0 0 0 0.25 0"/>
<feBlend mode="normal" in2="BackgroundImageFix" result="effect1_dropShadow_1_19612"/>
<feBlend mode="normal" in="SourceGraphic" in2="effect1_dropShadow_1_19612" result="shape"/>
</filter>
<filter id="filter1_d_1_19612" x="0" y="0" width="328" height="58" filterUnits="userSpaceOnUse" color-interpolation-filters="sRGB">
<feFlood flood-opacity="0" result="BackgroundImageFix"/>
<feColorMatrix in="SourceAlpha" type="matrix" values="0 0 0 0 0 0 0 0 0 0 0 0 0 0 0 0 0 0 127 0" result="hardAlpha"/>
<feOffset dy="4"/>
<feGaussianBlur stdDeviation="2"/>
<feComposite in2="hardAlpha" operator="out"/>
<feColorMatrix type="matrix" values="0 0 0 0 0 0 0 0 0 0 0 0 0 0 0 0 0 0 0.25 0"/>
<feBlend mode="normal" in2="BackgroundImageFix" result="effect1_dropShadow_1_19612"/>
<feBlend mode="normal" in="SourceGraphic" in2="effect1_dropShadow_1_19612" result="shape"/>
</filter>
</defs>
</svg>
