<svg width="66" height="71" viewBox="0 0 66 71" fill="none" xmlns="http://www.w3.org/2000/svg">
<g filter="url(#filter0_d_1_15561)">
<circle cx="33" cy="29" r="29" fill="#D69E5A"/>
</g>
<path d="M33 17C33.3978 17 33.7794 17.158 34.0607 17.4393C34.342 17.7206 34.5 18.1022 34.5 18.5V27.5H43.5C43.8978 27.5 44.2794 27.658 44.5607 27.9393C44.842 28.2206 45 28.6022 45 29C45 29.3978 44.842 29.7794 44.5607 30.0607C44.2794 30.342 43.8978 30.5 43.5 30.5H34.5V39.5C34.5 39.8978 34.342 40.2794 34.0607 40.5607C33.7794 40.842 33.3978 41 33 41C32.6022 41 32.2206 40.842 31.9393 40.5607C31.658 40.2794 31.5 39.8978 31.5 39.5V30.5H22.5C22.1022 30.5 21.7206 30.342 21.4393 30.0607C21.158 29.7794 21 29.3978 21 29C21 28.6022 21.158 28.2206 21.4393 27.9393C21.7206 27.658 22.1022 27.5 22.5 27.5H31.5V18.5C31.5 18.1022 31.658 17.7206 31.9393 17.4393C32.2206 17.158 32.6022 17 33 17Z" fill="white"/>
<defs>
<filter id="filter0_d_1_15561" x="0" y="0" width="66" height="71" filterUnits="userSpaceOnUse" color-interpolation-filters="sRGB">
<feFlood flood-opacity="0" result="BackgroundImageFix"/>
<feColorMatrix in="SourceAlpha" type="matrix" values="0 0 0 0 0 0 0 0 0 0 0 0 0 0 0 0 0 0 127 0" result="hardAlpha"/>
<feOffset dy="9"/>
<feGaussianBlur stdDeviation="2"/>
<feComposite in2="hardAlpha" operator="out"/>
<feColorMatrix type="matrix" values="0 0 0 0 0 0 0 0 0 0 0 0 0 0 0 0 0 0 0.25 0"/>
<feBlend mode="normal" in2="BackgroundImageFix" result="effect1_dropShadow_1_15561"/>
<feBlend mode="normal" in="SourceGraphic" in2="effect1_dropShadow_1_15561" result="shape"/>
</filter>
</defs>
</svg>
