<svg width="31" height="31" viewBox="0 0 31 31" fill="none" xmlns="http://www.w3.org/2000/svg">
<g clip-path="url(#clip0_1_15667)">
<path d="M20.6663 27.125L14.5154 15.8488L19.3747 7.75L29.708 27.125H20.6663ZM10.333 12.9167L18.083 27.125H2.58301L10.333 12.9167ZM7.10384 10.3333C6.24741 10.3333 5.42606 9.99312 4.82048 9.38753C4.21489 8.78195 3.87467 7.96059 3.87467 7.10417C3.87467 6.24774 4.21489 5.42639 4.82048 4.8208C5.42606 4.21521 6.24741 3.875 7.10384 3.875C7.96027 3.875 8.78162 4.21521 9.38721 4.8208C9.99279 5.42639 10.333 6.24774 10.333 7.10417C10.333 7.96059 9.99279 8.78195 9.38721 9.38753C8.78162 9.99312 7.96027 10.3333 7.10384 10.3333Z" fill="#09121F"/>
</g>
<defs>
<clipPath id="clip0_1_15667">
<rect width="31" height="31" fill="white"/>
</clipPath>
</defs>
</svg>
