<svg width="18" height="14" viewBox="0 0 18 14" fill="none" xmlns="http://www.w3.org/2000/svg">
<path d="M9.00127 0.205872C13.0717 0.205872 16.4582 3.13489 17.1686 6.99999C16.4589 10.8651 13.0717 13.7941 9.00127 13.7941C4.93084 13.7941 1.54435 10.8651 0.833984 6.99999C1.54359 3.13489 4.93084 0.205872 9.00127 0.205872ZM9.00127 12.2843C10.5409 12.284 12.0348 11.761 13.2384 10.801C14.4421 9.84107 15.2842 8.50094 15.627 6.99999C15.283 5.50023 14.4403 4.16156 13.2367 3.20285C12.0332 2.24414 10.54 1.72211 9.00127 1.72211C7.46255 1.72211 5.96935 2.24414 4.7658 3.20285C3.56225 4.16156 2.71955 5.50023 2.37549 6.99999C2.71829 8.50094 3.56044 9.84107 4.76411 10.801C5.96778 11.761 7.46167 12.284 9.00127 12.2843ZM9.00127 10.397C8.10031 10.397 7.23626 10.0391 6.59919 9.40207C5.96211 8.765 5.60421 7.90095 5.60421 6.99999C5.60421 6.09903 5.96211 5.23498 6.59919 4.59791C7.23626 3.96083 8.10031 3.60293 9.00127 3.60293C9.90222 3.60293 10.7663 3.96083 11.4034 4.59791C12.0404 5.23498 12.3983 6.09903 12.3983 6.99999C12.3983 7.90095 12.0404 8.765 11.4034 9.40207C10.7663 10.0391 9.90222 10.397 9.00127 10.397ZM9.00127 8.88724C9.5018 8.88724 9.98183 8.68841 10.3358 8.33448C10.6897 7.98055 10.8885 7.50052 10.8885 6.99999C10.8885 6.49946 10.6897 6.01943 10.3358 5.6655C9.98183 5.31157 9.5018 5.11273 9.00127 5.11273C8.50074 5.11273 8.02071 5.31157 7.66678 5.6655C7.31285 6.01943 7.11401 6.49946 7.11401 6.99999C7.11401 7.50052 7.31285 7.98055 7.66678 8.33448C8.02071 8.68841 8.50074 8.88724 9.00127 8.88724Z" fill="#94A3B8"/>
</svg>
