<svg width="25" height="24" viewBox="0 0 25 24" fill="none" xmlns="http://www.w3.org/2000/svg">
<g clip-path="url(#clip0_1_18512)">
<path d="M4.116 1.40798L22.578 11.562C22.6564 11.6051 22.7218 11.6686 22.7673 11.7456C22.8128 11.8226 22.8368 11.9105 22.8368 12C22.8368 12.0895 22.8128 12.1773 22.7673 12.2544C22.7218 12.3314 22.6564 12.3948 22.578 12.438L4.116 22.592C4.03987 22.6339 3.95415 22.6552 3.86727 22.6538C3.7804 22.6525 3.69537 22.6285 3.62058 22.5843C3.54578 22.5401 3.4838 22.4772 3.44073 22.4017C3.39767 22.3263 3.37501 22.2409 3.375 22.154V1.84598C3.37501 1.7591 3.39767 1.67372 3.44073 1.59825C3.4838 1.52279 3.54578 1.45985 3.62058 1.41564C3.69537 1.37143 3.7804 1.34747 3.86727 1.34613C3.95415 1.34479 4.03987 1.36611 4.116 1.40798ZM5.375 13V19.617L19.225 12L5.375 4.38298V11H10.375V13H5.375Z" fill="#D69E5A"/>
</g>
<defs>
<clipPath id="clip0_1_18512">
<rect width="24" height="24" fill="white" transform="translate(0.375)"/>
</clipPath>
</defs>
</svg>
