<svg width="25" height="24" viewBox="0 0 25 24" fill="none" xmlns="http://www.w3.org/2000/svg">
<g clip-path="url(#clip0_1_18506)">
<path d="M3.125 3H21.125C21.3902 3 21.6446 3.10536 21.8321 3.29289C22.0196 3.48043 22.125 3.73478 22.125 4V20C22.125 20.2652 22.0196 20.5196 21.8321 20.7071C21.6446 20.8946 21.3902 21 21.125 21H3.125C2.85978 21 2.60543 20.8946 2.41789 20.7071C2.23036 20.5196 2.125 20.2652 2.125 20V4C2.125 3.73478 2.23036 3.48043 2.41789 3.29289C2.60543 3.10536 2.85978 3 3.125 3ZM20.125 7.238L12.197 14.338L4.125 7.216V19H20.125V7.238ZM4.636 5L12.186 11.662L19.627 5H4.636Z" fill="#94A3B8"/>
</g>
<defs>
<clipPath id="clip0_1_18506">
<rect width="24" height="24" fill="white" transform="translate(0.125)"/>
</clipPath>
</defs>
</svg>
