<svg width="25" height="24" viewBox="0 0 25 24" fill="none" xmlns="http://www.w3.org/2000/svg">
<g clip-path="url(#clip0_1_18516)">
<path d="M21.625 8V20.993C21.6259 21.1243 21.601 21.2545 21.5516 21.3762C21.5022 21.4979 21.4293 21.6087 21.3371 21.7022C21.2449 21.7957 21.1351 21.8701 21.0142 21.9212C20.8932 21.9723 20.7633 21.9991 20.632 22H4.618C4.35481 22 4.10239 21.8955 3.9162 21.7095C3.73 21.5235 3.62527 21.2712 3.625 21.008V2.992C3.625 2.455 4.074 2 4.627 2H15.622L21.625 8ZM19.625 9H14.625V4H5.625V20H19.625V9Z" fill="#94A3B8"/>
</g>
<defs>
<clipPath id="clip0_1_18516">
<rect width="24" height="24" fill="white" transform="translate(0.625)"/>
</clipPath>
</defs>
</svg>
