<svg width="25" height="24" viewBox="0 0 25 24" fill="none" xmlns="http://www.w3.org/2000/svg">
<g clip-path="url(#clip0_1_18655)">
<path d="M7.875 4V2H17.875V4H22.875V6H20.875V21C20.875 21.2652 20.7696 21.5196 20.5821 21.7071C20.3946 21.8946 20.1402 22 19.875 22H5.875C5.60978 22 5.35543 21.8946 5.16789 21.7071C4.98036 21.5196 4.875 21.2652 4.875 21V6H2.875V4H7.875ZM6.875 6V20H18.875V6H6.875ZM9.875 9H11.875V17H9.875V9ZM13.875 9H15.875V17H13.875V9Z" fill="#94A3B8"/>
</g>
<defs>
<clipPath id="clip0_1_18655">
<rect width="24" height="24" fill="white" transform="translate(0.875)"/>
</clipPath>
</defs>
</svg>
