<svg width="20" height="20" viewBox="0 0 20 20" fill="none" xmlns="http://www.w3.org/2000/svg">
<g clip-path="url(#clip0_1_16973)">
<path d="M10.0003 18.3333C5.39783 18.3333 1.66699 14.6025 1.66699 9.99999C1.66699 5.39749 5.39783 1.66666 10.0003 1.66666C14.6028 1.66666 18.3337 5.39749 18.3337 9.99999C18.3337 14.6025 14.6028 18.3333 10.0003 18.3333ZM10.0003 16.6667C11.7684 16.6667 13.4641 15.9643 14.7144 14.714C15.9646 13.4638 16.667 11.7681 16.667 9.99999C16.667 8.23188 15.9646 6.53619 14.7144 5.28594C13.4641 4.0357 11.7684 3.33332 10.0003 3.33332C8.23222 3.33332 6.53652 4.0357 5.28628 5.28594C4.03604 6.53619 3.33366 8.23188 3.33366 9.99999C3.33366 11.7681 4.03604 13.4638 5.28628 14.714C6.53652 15.9643 8.23222 16.6667 10.0003 16.6667ZM10.0003 8.82166L12.357 6.46416L13.5362 7.64332L11.1787 9.99999L13.5362 12.3567L12.357 13.5358L10.0003 11.1783L7.64366 13.5358L6.46449 12.3567L8.82199 9.99999L6.46449 7.64332L7.64366 6.46416L10.0003 8.82166Z" fill="#FF2B38"/>
</g>
<defs>
<clipPath id="clip0_1_16973">
<rect width="20" height="20" fill="white"/>
</clipPath>
</defs>
</svg>
