<svg width="31" height="31" viewBox="0 0 31 31" fill="none" xmlns="http://www.w3.org/2000/svg">
<g clip-path="url(#clip0_1_16870)">
<path d="M20.6668 27.125L14.5159 15.8488L19.3752 7.75L29.7085 27.125H20.6668ZM10.3335 12.9167L18.0835 27.125H2.5835L10.3335 12.9167ZM7.10433 10.3333C6.2479 10.3333 5.42655 9.99312 4.82096 9.38753C4.21538 8.78195 3.87516 7.96059 3.87516 7.10417C3.87516 6.24774 4.21538 5.42639 4.82096 4.8208C5.42655 4.21521 6.2479 3.875 7.10433 3.875C7.96076 3.875 8.78211 4.21521 9.38769 4.8208C9.99328 5.42639 10.3335 6.24774 10.3335 7.10417C10.3335 7.96059 9.99328 8.78195 9.38769 9.38753C8.78211 9.99312 7.96076 10.3333 7.10433 10.3333Z" fill="#09121F"/>
</g>
<defs>
<clipPath id="clip0_1_16870">
<rect width="31" height="31" fill="white"/>
</clipPath>
</defs>
</svg>
