<svg width="18" height="18" viewBox="0 0 18 18" fill="none" xmlns="http://www.w3.org/2000/svg">
<g clip-path="url(#clip0_1_16965)">
<path d="M12.2256 12.1712C11.9304 12.1535 11.2205 12.1955 10.5096 12.3306C10.0984 11.9144 9.74231 11.3901 9.47815 10.9577C10.3246 8.52371 9.78854 7.83191 9.06693 7.83191C8.50024 7.83191 8.21731 8.42995 8.28027 9.09068C8.31212 9.42329 8.59379 10.1222 8.94051 10.786C8.72781 11.3454 8.34823 12.2909 7.97146 12.9752C7.53042 13.1092 7.15214 13.2581 6.88067 13.3837C5.52838 14.0126 5.41971 14.8523 5.7011 15.2081C6.23537 15.8841 7.3737 15.3009 8.51592 13.2581C9.2979 13.0357 10.3268 12.7395 10.4195 12.7395C10.4302 12.7395 10.4448 12.7429 10.4618 12.7484C11.0319 13.251 11.7052 13.8266 12.2593 13.9024C13.0611 14.0126 13.5176 13.4311 13.4859 13.0695C13.4546 12.7076 13.2432 12.2323 12.2256 12.1712ZM7.16364 14.3747C6.83313 14.7677 6.29858 15.1446 6.10994 15.0193C5.92104 14.8936 5.88968 14.532 6.31451 14.1229C6.73906 13.7143 7.4497 13.5021 7.55654 13.4624C7.68276 13.4154 7.71411 13.4624 7.71411 13.5254C7.71411 13.5883 7.49386 13.9813 7.16364 14.3747ZM8.61074 9.0904C8.57913 8.69693 8.6575 8.3197 8.988 8.27266C9.31798 8.22513 9.47555 8.60264 9.34983 9.21584C9.2239 9.8298 9.16069 10.2382 9.09797 10.286C9.03504 10.333 8.97257 10.1755 8.97257 10.1755C8.84643 9.92357 8.6421 9.48334 8.61074 9.0904ZM8.73667 12.7862C8.90936 12.5027 9.34986 11.3553 9.34986 11.3553C9.44419 11.5285 10.183 12.4084 10.183 12.4084C10.183 12.4084 9.05072 12.6606 8.73667 12.7862ZM12.1642 13.2889C11.6926 13.2267 10.8908 12.6598 10.8908 12.6598C10.7808 12.6128 11.7694 12.4785 12.149 12.5028C12.6368 12.5344 12.8098 12.7389 12.8098 12.9433C12.8098 13.1478 12.6368 13.3519 12.1642 13.2889Z" fill="#94A3B8"/>
<path d="M16.2191 3.78492L12.7619 0.327375L12.4345 0H11.971H4.92026C3.25551 0 1.90115 1.35464 1.90115 3.01996V3.25093H1.4541V6.86264H1.90115V14.9804C1.90115 16.6454 3.25554 18 4.9203 18H13.5268C15.1921 18 16.5465 16.6454 16.5465 14.9804V4.57576V4.11254L16.2191 3.78492ZM13.5268 16.8818H4.92026C3.86997 16.8818 3.0188 16.0306 3.0188 14.9803V6.86261H8.54923V3.2509H3.0188V3.01992C3.0188 1.96938 3.86997 1.1179 4.92026 1.1179H11.7035V3.2587C11.7035 4.13367 12.4133 4.84302 13.2883 4.84302H15.4288V14.9803C15.4288 16.0306 14.5773 16.8818 13.5268 16.8818ZM3.0972 5.83896V4.16714C3.0972 4.13764 3.12121 4.11356 3.15078 4.11356H3.68192C3.76946 4.11356 3.85018 4.12794 3.92228 4.15617C3.99361 4.18412 4.0563 4.22332 4.10857 4.27296C4.16134 4.32285 4.20184 4.38349 4.22927 4.453C4.25669 4.52116 4.27082 4.59566 4.27082 4.67427C4.27082 4.7545 4.25669 4.82945 4.22898 4.89688C4.20156 4.96431 4.16106 5.02411 4.10882 5.07456C4.05682 5.12473 3.99386 5.16417 3.92175 5.19159C3.85018 5.21902 3.76946 5.23287 3.68192 5.23287H3.45776V5.839C3.45776 5.86853 3.43375 5.89254 3.40422 5.89254H3.15081C3.12121 5.89254 3.0972 5.86849 3.0972 5.83896ZM4.7353 5.83896V4.16714C4.7353 4.13764 4.75935 4.11356 4.78888 4.11356H5.37592C5.48747 4.11356 5.58573 4.13212 5.66856 4.16869C5.75245 4.20602 5.8274 4.26537 5.8917 4.34479C5.92489 4.38659 5.95125 4.43282 5.97031 4.48246C5.98887 4.5308 6.00297 4.58307 6.01211 4.63739C6.021 4.69122 6.02621 4.74922 6.02804 4.81166C6.02962 4.87121 6.03039 4.93523 6.03039 5.00316C6.03039 5.0708 6.02962 5.13485 6.02804 5.19441C6.02621 5.2566 6.021 5.31485 6.01211 5.36892C6.00297 5.42327 5.98887 5.47527 5.97031 5.52357C5.95097 5.57374 5.92461 5.62001 5.89191 5.661C5.82715 5.74123 5.75213 5.80053 5.66853 5.83734C5.58647 5.87391 5.488 5.89247 5.37589 5.89247H4.78885C4.75932 5.89254 4.7353 5.86849 4.7353 5.83896ZM7.53318 4.85089C7.56271 4.85089 7.58672 4.87494 7.58672 4.90447V5.13229C7.58672 5.16182 7.56271 5.18586 7.53318 5.18586H6.89179V5.83903C6.89179 5.86856 6.86774 5.89257 6.83821 5.89257H6.58477C6.55524 5.89257 6.53123 5.86856 6.53123 5.83903V4.16721C6.53123 4.13771 6.55524 4.11363 6.58477 4.11363H7.55695C7.58644 4.11363 7.61052 4.13768 7.61052 4.16721V4.39502C7.61052 4.42455 7.58648 4.4486 7.55695 4.4486H6.89179V4.85093L7.53318 4.85089Z" fill="#94A3B8"/>
<path d="M3.84729 4.84121C3.8899 4.80282 3.9105 4.74822 3.9105 4.67426C3.9105 4.60057 3.88987 4.54597 3.84729 4.50758C3.80289 4.46785 3.74436 4.44852 3.66807 4.44852H3.45801V4.9002H3.66807C3.74432 4.90024 3.80289 4.88094 3.84729 4.84121Z" fill="#94A3B8"/>
<path d="M5.48938 5.53643C5.52911 5.52153 5.56332 5.49751 5.5939 5.46303C5.62709 5.42594 5.64797 5.37264 5.65609 5.30444C5.66523 5.22681 5.66966 5.12546 5.66966 5.00318C5.66966 4.88066 5.66523 4.77927 5.65609 4.70193C5.64797 4.63351 5.62709 4.58022 5.59415 4.54337C5.5636 4.50885 5.5283 4.48435 5.48966 4.46993C5.44811 4.45401 5.40058 4.44617 5.34756 4.44617H5.0957V5.55992H5.34756C5.4003 5.55995 5.44811 5.55211 5.48938 5.53643Z" fill="#94A3B8"/>
</g>
<defs>
<clipPath id="clip0_1_16965">
<rect width="18" height="18" fill="white"/>
</clipPath>
</defs>
</svg>
