<svg width="360" height="907" viewBox="0 0 360 907" fill="none" xmlns="http://www.w3.org/2000/svg">
<g clip-path="url(#clip0_1_15458)">
<rect width="360" height="907" fill="#1F396B"/>
<path opacity="0.5" d="M87.4009 -18.9218C87.0634 -52.3407 96.8054 -83.415 113.581 -108.813L113.863 -109.238C139.346 -147.523 180.89 -172.814 228.044 -173.596C275.198 -174.377 317.239 -150.48 343.487 -113.044L534.476 -116.209L535.093 -55.1212C557.823 -28.5732 571.845 6.75184 572.239 45.7104C573.088 129.836 510.101 199.083 431.596 200.384C373.132 201.353 322.505 164.367 300.123 110.674C278.925 123.721 255.238 130.713 231.133 131.039C187.791 131.758 148.772 111.626 122.367 79.2996C119.931 76.325 117.608 73.2489 115.399 70.0714C98.0975 45.2383 87.7385 14.4971 87.4009 -18.9218Z" fill="#13294B"/>
</g>
<defs>
<clipPath id="clip0_1_15458">
<rect width="360" height="907" fill="white"/>
</clipPath>
</defs>
</svg>
